<svg xmlns="http://www.w3.org/2000/svg" width="410" height="404" viewBox="0 0 410 404" fill="none">
  <g clip-path="url(#clip0_17_61)">
    <path d="M399.641 59.5246L215.645 388.545C211.844 395.53 201.393 395.444 197.722 388.414L10.5817 59.5465C6.38758 52.0356 12.6802 43.0091 21.2362 44.3625L205.223 73.5423C206.398 73.7284 207.601 73.7266 208.776 73.5369L388.336 44.3802C396.863 43.0515 403.186 51.9655 399.028 59.4869L399.641 59.5246Z" fill="url(#paint0_linear_17_61)"/>
    <path d="M292.965 1.5744L156.801 27.0182C155.563 27.2484 154.419 27.7854 153.499 28.5868C152.579 29.3883 151.918 30.4221 151.587 31.569L99.2409 213.28C98.2346 216.665 101.178 219.956 104.661 219.299L200.082 201.28C203.674 200.606 206.655 204.023 205.448 207.5L173.124 304.823C171.969 308.133 174.877 311.46 178.291 310.684L236.192 297.453C239.634 296.671 242.369 300.058 240.988 303.316L210.058 378.556C207.81 383.943 215.568 387.447 218.698 382.563L220.038 380.508L380.489 119.389C382.329 116.353 379.569 112.768 376.2 113.378L278.362 130.838C274.834 131.474 272.227 127.747 274.045 124.635L306.768 67.0452C308.534 64.0349 306.029 60.2775 302.668 60.8845L207.392 77.7467C203.805 78.4038 200.823 74.9341 202.07 71.4375L226.63 2.56061C227.64 -0.230052 225.295 -2.95821 222.378 -2.3885e-05C221.568 0.151195 220.773 0.333897 219.986 0.547526L292.965 1.5744Z" fill="url(#paint1_linear_17_61)"/>
  </g>
  <defs>
    <linearGradient id="paint0_linear_17_61" x1="6.00017" y1="32.9999" x2="235" y2="344" gradientUnits="userSpaceOnUse">
      <stop stop-color="#41D1FF"/>
      <stop offset="1" stop-color="#BD34FE"/>
    </linearGradient>
    <linearGradient id="paint1_linear_17_61" x1="194.651" y1="8.81818" x2="236.076" y2="292.989" gradientUnits="userSpaceOnUse">
      <stop stop-color="#FFEA83"/>
      <stop offset="0.0833333" stop-color="#FFDD35"/>
      <stop offset="1" stop-color="#FFA800"/>
    </linearGradient>
    <clipPath id="clip0_17_61">
      <rect width="410" height="404" fill="white"/>
    </clipPath>
  </defs>
</svg>
